<svg id="Livello_3" data-name="Livello 3" xmlns="http://www.w3.org/2000/svg" viewBox="0 0 150 150"><defs><style>.cls-1{fill:#543847;}</style></defs><title>audio-on</title><polygon class="cls-1" points="0 75.37 0 104.93 18 104.93 18 122.82 33 122.82 33 136.44 52.1 136.25 52.13 150 75 150 75 75.37 75 0 52.13 0 52.1 14.5 33 14.3 33 27.93 18 27.93 18 45.81 0 45.81 0 75.37"/><polygon class="cls-1" points="82.6 44.08 90.91 44.08 90.91 54.57 98.78 54.57 98.78 95.43 90.69 95.43 90.69 105.92 82.6 105.92 82.6 95.7 89.2 95.7 89.2 54.57 82.6 54.57 82.6 44.08"/><polygon class="cls-1" points="107.94 23.65 116.25 23.65 116.25 41.07 124.13 41.07 124.13 108.93 116.03 108.93 116.03 126.35 107.94 126.35 107.94 109.39 114.54 109.39 114.54 41.07 107.94 41.07 107.94 23.65"/><polygon class="cls-1" points="133.28 10.4 141.59 10.4 141.59 32.32 149.47 32.32 149.47 117.68 141.38 117.68 141.38 139.6 133.28 139.6 133.28 118.26 139.89 118.26 139.89 32.32 133.28 32.32 133.28 10.4"/></svg>